<svg width="128" height="128" viewBox="0 0 128 128" fill="none" xmlns="http://www.w3.org/2000/svg">
<path d="M33.4993 27.7017V100.34H28.6567V27.7017H33.4993Z" fill="#EAE6E5"/>
<path d="M38.3831 27.7014V100.339H33.5405V27.7014H38.3831Z" fill="#EAE6E5" fill-opacity="0.8"/>
<path d="M43.2669 27.7014V100.339H38.4243V27.7014H43.2669Z" fill="#EAE6E5" fill-opacity="0.6"/>
<path d="M91.2028 79.6083C91.2028 84.6021 89.9171 88.6463 87.3459 91.741C84.7746 94.8006 81.446 96.9985 77.3602 98.3349C73.2743 99.6713 68.801 100.339 63.9403 100.339H44.3916V27.7014H62.3024C69.664 27.7014 75.7928 29.1257 80.6887 31.9742C85.5847 34.7876 88.0327 39.4649 88.0327 46.006C88.0327 50.3667 86.7471 53.8835 84.1758 56.5562C81.6045 59.2289 78.3816 61.0048 74.5071 61.884C85.6376 63.783 91.2028 69.6912 91.2028 79.6083ZM78.6282 46.4807C78.6282 38.8846 73.8731 35.0865 64.363 35.0865H53.5319V58.6135H65.2611C69.664 58.6135 72.9925 57.6464 75.2468 55.7122C77.5011 53.7428 78.6282 50.6657 78.6282 46.4807ZM81.5341 79.9248C81.5341 74.8256 80.1252 71.2561 77.3073 69.2164C74.5247 67.1767 70.7383 66.1568 65.948 66.1568H53.5319V92.7961H65.5253C69.9986 92.7961 73.7851 91.8641 76.8847 90.0003C79.9843 88.1364 81.5341 84.7779 81.5341 79.9248Z" fill="#EAE6E5"/>
<ellipse cx="95.2348" cy="31.7121" rx="4.01072" ry="4.01072" fill="#EAE6E5"/>
</svg>
